<?xml version="1.0" standalone="no"?><!DOCTYPE svg PUBLIC "-//W3C//DTD SVG 1.1//EN" "http://www.w3.org/Graphics/SVG/1.1/DTD/svg11.dtd"><svg t="1568701028737" class="icon" viewBox="0 0 1024 1024" version="1.1" xmlns="http://www.w3.org/2000/svg" p-id="1154" xmlns:xlink="http://www.w3.org/1999/xlink" width="200" height="200"><defs><style type="text/css"></style></defs><path d="M921.17649 661.232799a41.862394 41.862394 0 0 0 41.741753-41.862394V186.510839A186.63148 186.63148 0 0 0 776.407404 0h-579.076343A186.63148 186.63148 0 0 0 11.302786 186.510839v651.460886a186.752121 186.752121 0 0 0 186.510839 186.028275H635.016264a41.862394 41.862394 0 0 0 0-83.604147H197.813625a103.027333 103.027333 0 0 1-102.906692-102.906692v-651.460886a102.906692 102.906692 0 0 1 102.906692-102.906692h579.076343A102.906692 102.906692 0 0 1 879.917301 186.510839v432.859566a41.983035 41.983035 0 0 0 41.259189 41.862394z" fill="#1296db" p-id="1155"></path><path d="M197.813625 294.122526h589.813383a41.862394 41.862394 0 0 0 0-83.604147H197.813625a41.862394 41.862394 0 1 0 0 83.604147zM833.10863 499.93591A41.862394 41.862394 0 0 0 791.246236 458.435438H197.813625a41.862394 41.862394 0 1 0 0 83.604147h593.432611a41.983035 41.983035 0 0 0 41.862394-42.103675zM197.813625 705.749293a41.862394 41.862394 0 1 0 0 83.604147h395.702168a41.862394 41.862394 0 1 0 0-83.604147zM968.347084 800.331762h-65.387371v-65.38737a41.862394 41.862394 0 1 0-83.604147 0v65.38737h-65.38737a41.862394 41.862394 0 1 0 0 83.604148H819.596848v65.38737a41.862394 41.862394 0 1 0 83.604147 0v-65.38737h65.387371a41.862394 41.862394 0 1 0 0-83.604148z" fill="#1296db" p-id="1156"></path></svg>