<?xml version="1.0" standalone="no"?><!DOCTYPE svg PUBLIC "-//W3C//DTD SVG 1.1//EN" "http://www.w3.org/Graphics/SVG/1.1/DTD/svg11.dtd"><svg t="1568702988138" class="icon" viewBox="0 0 1024 1024" version="1.1" xmlns="http://www.w3.org/2000/svg" p-id="4419" xmlns:xlink="http://www.w3.org/1999/xlink" width="200" height="200"><defs><style type="text/css"></style></defs><path d="M925.598 836.904c0.367-2.784 0.847-5.53 0.847-8.41V180.092c19.035-11.08 31.976-31.471 31.976-55.083 0-35.321-28.633-63.957-63.953-63.957-23.612 0-44.007 12.942-55.083 31.98H182.11c-11.077-19.038-31.471-31.98-55.083-31.98-35.318 0-63.953 28.636-63.953 63.957 0 23.612 12.943 44.003 31.976 55.083v648.402c0 2.88 0.48 5.627 0.851 8.41-19.499 10.954-32.827 31.586-32.827 55.543 0 35.317 28.635 63.953 63.953 63.953 35.322 0 63.954-28.635 63.954-63.953h639.536c0 35.317 28.631 63.953 63.954 63.953 35.32 0 63.953-28.635 63.953-63.953-0.002-23.957-13.33-44.588-32.825-55.543z m-63.106-8.41h-703.49V180.092a63.844 63.844 0 0 0 23.11-23.11h657.274a63.801 63.801 0 0 0 23.107 23.11v648.402z" p-id="4420" fill="#1296db"></path><path d="M670.628 252.915h-383.72v127.903h63.954v-63.953h127.906V668.61h-63.952v63.953h191.86v-63.953h-63.954V316.865h127.906v63.953h63.957V252.915H702.61z" p-id="4421" fill="#1296db"></path></svg>