<?xml version="1.0" standalone="no"?><!DOCTYPE svg PUBLIC "-//W3C//DTD SVG 1.1//EN" "http://www.w3.org/Graphics/SVG/1.1/DTD/svg11.dtd"><svg t="1568702838523" class="icon" viewBox="0 0 1031 1024" version="1.1" xmlns="http://www.w3.org/2000/svg" p-id="2154" xmlns:xlink="http://www.w3.org/1999/xlink" width="201.3671875" height="200"><defs><style type="text/css"></style></defs><path d="M422.495 226.407l-97.74-37.845-25.11 101.07L164.06 253.25v126.653H67.625v520.222h833.332V706.04h66.667V576.688h-66.667V565.37 379.902h-29.768v-61.965L485.472 123.874M346.58 230.075l363.892 149.85h-74.407l-306.292-82.192 16.807-67.657zM196.19 294.2l319.343 85.702H196.19V294.2z m642.555 541.238H131.907V447.561h706.86v129.127H614.082V706.04h224.685c-0.023 65.183-0.023 129.398-0.023 129.398z m0.315-161.708H646.19v-64.687h192.87v64.687z m0-293.827h-96.435V359.72L461.217 241.37l40.118-60.57L839.06 340.843v39.06z" p-id="2155" fill="#1296db"></path></svg>